<?xml version="1.0" standalone="no"?>
<!DOCTYPE svg PUBLIC "-//W3C//DTD SVG 20010904//EN"
 "http://www.w3.org/TR/2001/REC-SVG-20010904/DTD/svg10.dtd">
<svg version="1.0" xmlns="http://www.w3.org/2000/svg"
 width="700.000000pt" height="700.000000pt" viewBox="0 0 700.000000 700.000000"
 preserveAspectRatio="xMidYMid meet">
<metadata>
Created by potrace 1.14, written by Peter Selinger 2001-2017
</metadata>
<g transform="translate(0.000000,700.000000) scale(0.100000,-0.100000)"
fill="#000000" stroke="none">
<path d="M1041 6150 c-9 -6 -7 -3296 2 -3400 10 -107 24 -237 32 -284 3 -17 8
-44 11 -61 87 -536 301 -961 624 -1240 201 -174 548 -331 797 -360 11 -2 29
-5 40 -8 70 -21 448 -29 588 -14 203 22 428 78 572 142 113 51 230 111 256
133 10 9 13 106 12 471 l0 461 30 1 c44 0 937 0 957 0 17 -1 18 -36 20 -538
l3 -538 488 0 c269 0 494 3 500 7 9 5 12 656 12 2618 0 1435 -2 2611 -5 2611
-19 4 -1640 3 -1641 -1 -1 -3 -3 -738 -4 -1635 -1 -896 -5 -1648 -8 -1670 -33
-215 -162 -427 -347 -570 -273 -210 -683 -237 -959 -64 -170 107 -314 349
-360 606 -6 32 -13 69 -16 83 -3 14 -7 43 -10 65 -3 22 -8 56 -11 75 -4 19 -8
715 -10 1545 -1 831 -3 1524 -3 1540 l-1 30 -781 0 c-429 0 -784 -2 -788 -5z"/>
</g>
</svg>
