<svg xmlns="http://www.w3.org/2000/svg" viewBox="0 0 785.66 108"><defs><style>.cls-1{fill:#1fff05;}</style></defs><title>Element 10</title><g id="Ebene_2" data-name="Ebene 2"><g id="Ebene_1-2" data-name="Ebene 1"><polygon class="cls-1" points="300.98 32.94 301.05 33 300.93 33 300.98 32.94"/><path class="cls-1" d="M46,33V76.65a12.24,12.24,0,0,1-12.38,12.9C25.52,89.55,22,83.1,22,72.45V33H0V76.05c0,22.65,11,32,25.92,32A27.79,27.79,0,0,0,41,103.91V91H55v15H69V33Z"/><path class="cls-1" d="M130.88,31A27.24,27.24,0,0,0,116,35.24V48H101V33H88v73h22V63.7a15.46,15.46,0,0,1,.9-5.7c1.5-4.2,5.25-8.55,11.55-8.55,8.25,0,11.55,6.45,11.55,15.9V106h23V62.5C157,40.9,145.8,31,130.88,31Z"/><path class="cls-1" d="M175,0V107h23V0Z"/><path class="cls-1" d="M300.88,33l-.16.23.21-.23Z"/><polygon class="cls-1" points="333.06 107 304.76 107 304.67 106.85 304.6 106.9 286.82 81.37 281 87.99 281 107 258 107 258 0 281 0 281 56.53 301.42 33.23 301.63 33 329.27 33 312.05 52.49 302.79 62.96 302.82 63.01 333.06 107"/><path class="cls-1" d="M402.82,77H354.31c.77,9.47,10.32,14,21.25,14a67.61,67.61,0,0,0,20.79-3l3.08,15.49c-7.7,3-17.09,4.51-27.26,4.51C346.61,108,332,93.54,332,70.54c0-16.62,9.42-34.79,30-38.54V46h15V31.86c19.14,3.21,26.59,19.78,26.59,36.12A52.76,52.76,0,0,1,402.82,77Z"/><rect class="cls-1" x="216.04" width="23" height="23"/><rect class="cls-1" x="216" y="33" width="23" height="73"/><polygon class="cls-1" points="311.26 52.3 302.11 62.73 302.08 62.68 311.26 52.3"/><path d="M491.71,59.7A6.09,6.09,0,0,0,485.19,57a13.2,13.2,0,0,0-7.47,4.14,10.32,10.32,0,0,0-2.93,8.27q.36,4.83,7.25,9.74a34.05,34.05,0,0,0,13.55-.84q7-1.78,19-13.22c1-.73,1.53-.19,1.65,1.61s-.71,4.57-2.49,8.28a21.62,21.62,0,0,1-8.16,9q-5.5,3.48-15.09,5a8.32,8.32,0,0,1,.51,7.4,13.23,13.23,0,0,1-6,6.73,26.9,26.9,0,0,1-10.29,3.52,24.34,24.34,0,0,1-11-.88q-7-2.64-8.09-7.36t2.6-9.34c2.44-3.08,6.1-5.39,11-7A24.5,24.5,0,0,1,463,75.6a18.69,18.69,0,0,1-2.53-12.82,19,19,0,0,1,7.14-11.86,34.87,34.87,0,0,1,13.66-6.56q7.44-1.72,12.89.07a7.7,7.7,0,0,1,5.75,7.51,19.49,19.49,0,0,1-1.17,5.35,9,9,0,0,1-2.93,4.54Q494,63.15,491.71,59.7ZM476,90.61a25.07,25.07,0,0,0-8.94,2.24c-2.64,1.24-3.77,2.48-3.41,3.69a4.08,4.08,0,0,0,3,2.61,9.41,9.41,0,0,0,10-4.07A3.43,3.43,0,0,0,476,90.61Z"/><path d="M521,97.13a22.65,22.65,0,0,1-11.32-11.57,31.31,31.31,0,0,1-2.49-16.85,27.25,27.25,0,0,1,7.07-15.52,33.73,33.73,0,0,1,10.47-7.33A29,29,0,0,1,536,43.19a14,14,0,0,1,8.93,2.53c2.35,1.75,3.57,4.54,3.67,8.34a19.28,19.28,0,0,1-.88,6.89q-1.47,3.81-2.75,4.5c-.85.47-1.65.21-2.38-.77a20,20,0,0,1-2.2-4,3.36,3.36,0,0,0-1-1.32A8.07,8.07,0,0,0,538,58.5a9.48,9.48,0,0,0-1.1-.48,2.9,2.9,0,0,0-.51-.15c-1.13-.44-2.72-.31-4.8.37a18.8,18.8,0,0,0-6.48,4,12.81,12.81,0,0,0-3.77,8.6A18.58,18.58,0,0,0,523.06,80c1.32,2.76,3,4.43,5.12,5a16.25,16.25,0,0,0,7.88-.66,32.13,32.13,0,0,0,7.21-3.3,83.89,83.89,0,0,0,10.84-8.31q5.05-4.57,8.13-7.66l.44-.44c1.61-1.46,2.75-1.61,3.41-.43s.06,3.73-1.8,7.69a87.84,87.84,0,0,1-6.37,11.17A45.38,45.38,0,0,1,549,93a27.14,27.14,0,0,1-12.08,5.64Q530,100,521,97.13Z"/><path d="M589.12,72.74c-.34.1-.74.82-1.21,2.16s-1,3.07-1.57,5.17q-1.25,4.46-3,9.55a43.62,43.62,0,0,1-4.18,8.94c-1.61,2.56-3.51,4.08-5.71,4.54s-4.74-.77-7.62-3.7q-5.34-5.85-7.54-16.4a93.66,93.66,0,0,1-1.69-23,131.65,131.65,0,0,1,3.19-24.14,82.86,82.86,0,0,1,7-19.92q4.32-8.23,9.82-10.29t11.57,4.76a20,20,0,0,1,4.36,13.85,47.39,47.39,0,0,1-3.88,16.47A76.06,76.06,0,0,1,580.15,56a45.64,45.64,0,0,1-9.48,10.11,46,46,0,0,0-.15,7.58,65.27,65.27,0,0,0,.8,7.72c.39,2.25.83,3.47,1.32,3.67.39-1.18.9-3,1.54-5.64q1.17-5.13,3.11-11.54a51.21,51.21,0,0,1,5-11.46q3-5.05,7.51-6.3,4.54-1,9.23,3.77t4.32,14.21c-.24,6.28-.39,10.47-.44,12.6s.64,3.2,2.05,3.22,3.71-1.55,6.89-4.72q4.9-5.06,9.15-10.26c1.71-2.1,3-3.61,3.88-4.54s1.53-.81,1.65.33a16.55,16.55,0,0,1-.77,5.35,46.63,46.63,0,0,1-2.93,7.87,74.76,74.76,0,0,1-5.23,9.27,32.42,32.42,0,0,1-7.33,8.05A11.51,11.51,0,0,1,601,97.61a9.83,9.83,0,0,1-7.47-5.13q-2.35-4.29-3.15-13.73c-.1-1.86-.24-3.33-.41-4.43S589.51,72.69,589.12,72.74Zm-9.81-52.81c-.83.44-1.79,2.15-2.86,5.13s-2.12,6.42-3.15,10.33-1.83,7.49-2.42,10.76-.78,5.42-.58,6.45q2.78-2.77,5.57-9.23a61.4,61.4,0,0,0,4-13.18Q581.14,23.46,579.31,19.93Z"/><path d="M631.16,97.94a23.45,23.45,0,0,1-11.72-12,32.55,32.55,0,0,1-2.56-17.43,28.42,28.42,0,0,1,7.33-16.11,35,35,0,0,1,15.3-9.23q8.5-2.41,14.58.37A23.85,23.85,0,0,1,665,55.09a33.89,33.89,0,0,1,2.89,16.33,35.24,35.24,0,0,1-4.87,16A24.74,24.74,0,0,1,650.68,98Q642.66,101.24,631.16,97.94Zm4.32-36.11a12.93,12.93,0,0,0-4,8.9,19.27,19.27,0,0,0,1.83,9.52q2.08,4.29,5.31,5.16a16.69,16.69,0,0,0,7.69-.51A11.73,11.73,0,0,0,654,78.2a16.77,16.77,0,0,0,1-10.15q-2.06-8.71-7.51-10.4T635.48,61.83Zm49,34.5A21.3,21.3,0,0,1,674,85.56,28.91,28.91,0,0,1,671.7,70a25.21,25.21,0,0,1,6.56-14.36A31,31,0,0,1,692,47.29q7.62-2.16,13,.4A21.19,21.19,0,0,1,714.7,58a32,32,0,0,1-1.8,28.89,22.45,22.45,0,0,1-11,9.42Q694.81,99.26,684.48,96.33ZM686.31,66A12.18,12.18,0,0,0,685,74.61a18.1,18.1,0,0,0,3.51,7.84q2.61,3.26,5.46,3.26a13.61,13.61,0,0,0,6.23-2.13,10.34,10.34,0,0,0,4.9-7.43,15.91,15.91,0,0,0-1.31-9q-3.53-7.1-8.39-7.39T686.31,66Z"/><path d="M740.22,102.55Q731.87,98.59,728,89A61.9,61.9,0,0,1,723.74,67,105.09,105.09,0,0,1,726,42.75a77.56,77.56,0,0,1,7.17-20.66q4.65-8.67,10.59-11t12.37,4.62a21.36,21.36,0,0,1,5.35,13.4,37.29,37.29,0,0,1-2.64,14.72,72.52,72.52,0,0,1-6.92,13.62,94.15,94.15,0,0,1-7.47,10.15q-3.4,3.92-4.28,4.21,1,10.92,5,14.35t9.63,1.73a36.45,36.45,0,0,0,11.53-6.3A90.24,90.24,0,0,0,777,71.86a75.68,75.68,0,0,0,7.15-8.57c.78-1.07,1.25-1.1,1.42-.07a14.54,14.54,0,0,1-.55,5,37,37,0,0,1-2.71,7.5,70.49,70.49,0,0,1-7.17,11.43,57.89,57.89,0,0,1-10,10.29,32.1,32.1,0,0,1-12,6.15A20,20,0,0,1,740.22,102.55Zm5.2-75.66q-1.83,1.09-3.62,7.44a111.33,111.33,0,0,0-2.86,13.07c-.71,4.49-.94,7.5-.7,9Q741,53.77,743.37,48a48.13,48.13,0,0,0,3.15-11.72Q747.33,30.33,745.42,26.89Z"/></g></g></svg>